<?xml version="1.0" encoding="UTF-8" standalone="no"?>
<!-- Created with Inkscape (http://www.inkscape.org/) -->

<svg
   xmlns:dc="http://purl.org/dc/elements/1.1/"
   xmlns:cc="http://creativecommons.org/ns#"
   xmlns:rdf="http://www.w3.org/1999/02/22-rdf-syntax-ns#"
   xmlns:svg="http://www.w3.org/2000/svg"
   xmlns="http://www.w3.org/2000/svg"
   xmlns:xlink="http://www.w3.org/1999/xlink"
   xmlns:sodipodi="http://sodipodi.sourceforge.net/DTD/sodipodi-0.dtd"
   xmlns:inkscape="http://www.inkscape.org/namespaces/inkscape"
   width="210mm"
   height="297mm"
   viewBox="0 0 210 297"
   version="1.1"
   id="svg8"
   sodipodi:docname="logo.svg"
   inkscape:version="0.92.3 (2405546, 2018-03-11)">
  <defs
     id="defs2">
    <linearGradient
       inkscape:collect="always"
       id="linearGradient4832">
      <stop
         style="stop-color:#ac9393;stop-opacity:1;"
         offset="0"
         id="stop4828" />
      <stop
         style="stop-color:#ac9393;stop-opacity:0;"
         offset="1"
         id="stop4830" />
    </linearGradient>
    <linearGradient
       id="b">
      <stop
         offset="0"
         stop-color="#8cd5ff"
         id="stop4819" />
      <stop
         offset=".262"
         stop-color="#64baff"
         id="stop4821" />
      <stop
         offset=".705"
         stop-color="#3689e6"
         id="stop4823" />
      <stop
         offset="1"
         stop-color="#0d52bf"
         id="stop4825" />
    </linearGradient>
    <linearGradient
       id="c">
      <stop
         id="stop3832"
         stop-color="#fff"
         offset="0" />
      <stop
         id="stop3834"
         stop-opacity=".235"
         stop-color="#fff"
         offset=".424" />
      <stop
         id="stop3836"
         stop-opacity=".157"
         stop-color="#fff"
         offset=".821" />
      <stop
         id="stop3838"
         stop-opacity=".392"
         stop-color="#fff"
         offset="1" />
    </linearGradient>
    <linearGradient
       id="a">
      <stop
         id="stop3841"
         offset="0" />
      <stop
         id="stop3843"
         stop-opacity="0"
         offset="1" />
    </linearGradient>
    <linearGradient
       id="b-3">
      <stop
         id="stop3846"
         stop-color="#8cd5ff"
         offset="0" />
      <stop
         id="stop3848"
         stop-color="#64baff"
         offset=".262" />
      <stop
         id="stop3850"
         stop-color="#3689e6"
         offset=".705" />
      <stop
         id="stop3852"
         stop-color="#0d52bf"
         offset="1" />
    </linearGradient>
    <radialGradient
       xlink:href="#a"
       id="f"
       gradientUnits="userSpaceOnUse"
       gradientTransform="matrix(0.38235,0,0,0.11152,-5.925,36.336)"
       cx="99.189"
       cy="185.297"
       fx="99.189"
       fy="185.297"
       r="62.769" />
    <radialGradient
       xlink:href="#b-3"
       id="e"
       gradientUnits="userSpaceOnUse"
       gradientTransform="matrix(0,3.59588,-3.80402,0,64.143,-20.065)"
       cx="3.972"
       cy="8.45"
       fx="3.972"
       fy="8.45"
       r="20" />
    <radialGradient
       xlink:href="#a"
       id="g"
       gradientUnits="userSpaceOnUse"
       gradientTransform="matrix(0.2549,0,0,0.07966,6.716,44.24)"
       cx="99.189"
       cy="185.297"
       fx="99.189"
       fy="185.297"
       r="62.769" />
    <linearGradient
       gradientTransform="matrix(2.36328,0,0,2.36324,-138.572,-33.856)"
       gradientUnits="userSpaceOnUse"
       xlink:href="#c"
       id="i"
       y2="40.496"
       x2="71.204"
       y1="15.369"
       x1="71.204" />
    <radialGradient
       gradientTransform="matrix(0,5.63412,-4.45065,0,69.382,-4.623)"
       gradientUnits="userSpaceOnUse"
       xlink:href="#d"
       id="h"
       fy="8.45"
       fx=".667"
       r="20"
       cy="8.45"
       cx="-1.265" />
    <linearGradient
       id="d">
      <stop
         id="stop3860"
         stop-color="#d1ff82"
         offset="0" />
      <stop
         id="stop3862"
         stop-color="#9bdb4d"
         offset=".262" />
      <stop
         id="stop3864"
         stop-color="#68b723"
         offset=".661" />
      <stop
         id="stop3866"
         stop-color="#3a9104"
         offset="1" />
    </linearGradient>
    <radialGradient
       xlink:href="#a"
       id="g-6"
       gradientUnits="userSpaceOnUse"
       gradientTransform="matrix(0.2549,0,0,0.07966,8.6430508,146.19514)"
       cx="99.189003"
       cy="185.297"
       fx="99.189003"
       fy="185.297"
       r="62.769001" />
    <radialGradient
       xlink:href="#a"
       id="f-1"
       gradientUnits="userSpaceOnUse"
       gradientTransform="matrix(0.38235,0,0,0.11152,-3.9979492,138.29114)"
       cx="99.189003"
       cy="185.297"
       fx="99.189003"
       fy="185.297"
       r="62.769001" />
    <radialGradient
       xlink:href="#b-3"
       id="e-3"
       gradientUnits="userSpaceOnUse"
       gradientTransform="matrix(0,3.59588,-3.80402,0,66.070061,81.890136)"
       cx="3.9719999"
       cy="8.4499998"
       fx="3.9719999"
       fy="8.4499998"
       r="20" />
    <linearGradient
       inkscape:collect="always"
       xlink:href="#linearGradient4832"
       id="linearGradient4834"
       x1="4.4270508"
       y1="133.95514"
       x2="89.185951"
       y2="69.557915"
       gradientUnits="userSpaceOnUse" />
  </defs>
  <sodipodi:namedview
     id="base"
     pagecolor="#ffffff"
     bordercolor="#666666"
     borderopacity="1.0"
     inkscape:pageopacity="0.0"
     inkscape:pageshadow="2"
     inkscape:zoom="1.979899"
     inkscape:cx="403.60592"
     inkscape:cy="859.31479"
     inkscape:document-units="mm"
     inkscape:current-layer="g3924"
     showgrid="false"
     showguides="false"
     inkscape:window-width="1920"
     inkscape:window-height="1016"
     inkscape:window-x="0"
     inkscape:window-y="27"
     inkscape:window-maximized="1" />
  <metadata
     id="metadata5">
    <rdf:RDF>
      <cc:Work
         rdf:about="">
        <dc:format>image/svg+xml</dc:format>
        <dc:type
           rdf:resource="http://purl.org/dc/dcmitype/StillImage" />
      </cc:Work>
    </rdf:RDF>
  </metadata>
  <g
     inkscape:label="Layer 1"
     inkscape:groupmode="layer"
     id="layer1">
    <text
       xml:space="preserve"
       style="font-style:normal;font-weight:normal;font-size:10.58333302px;line-height:1.25;font-family:sans-serif;letter-spacing:0px;word-spacing:0px;fill:#000000;fill-opacity:1;stroke:none;stroke-width:0.26458332"
       x="83.120827"
       y="72.092697"
       id="text3715"
       inkscape:export-filename="/home/jeremypotter/Documents/adblockpluschrome/icons/full/abp-128.png"
       inkscape:export-xdpi="199.59174"
       inkscape:export-ydpi="199.59174"><tspan
         sodipodi:role="line"
         id="tspan3713"
         x="83.120827"
         y="72.092697"
         style="font-style:normal;font-variant:normal;font-weight:300;font-stretch:normal;font-family:Montserrat;-inkscape-font-specification:'Montserrat Light';stroke-width:0.26458332">harmony</tspan></text>
    <g
       id="g3924"
       transform="matrix(0.26458333,0,0,0.26458333,63.027931,60.813522)">
      <path
         id="path3871"
         overflow="visible"
         d="M 32,2.5 C 15.723,2.5 2.5,15.723 2.5,32 2.5,48.277 15.723,61.5 32,61.5 48.277,61.5 61.5,48.277 61.5,32 61.5,15.723 48.277,2.5 32,2.5 Z"
         style="color:#000000;overflow:visible;fill:url(#e);marker:none"
         inkscape:connector-curvature="0"
         inkscape:export-filename="/home/jeremypotter/Documents/adblockpluschrome/icons/full/abp-128.png"
         inkscape:export-xdpi="199.59174"
         inkscape:export-ydpi="199.59174" />
      <path
         id="path3873"
         overflow="visible"
         d="m 32,2.5 c -0.456,0 -0.909,0.015 -1.36,0.035 a 0.951,0.951 0 0 0 0.31,1.854 c 7.095,0 13.698,6.558 14.208,14.238 -0.016,7.417 -6.026,13.422 -13.449,13.422 a 0.95,0.95 0 0 0 -0.059,0.002 l -0.75,0.047 c -8.3,0.421 -14.925,7.284 -14.925,15.683 0,4.644 2.029,8.808 5.246,11.674 A 29.364,29.364 0 0 0 32,61.5 C 48.277,61.5 61.5,48.277 61.5,32 61.5,21.337 55.824,11.986 47.334,6.803 A 30.306,30.306 0 0 0 33.424,2.537 29.907,29.907 0 0 0 32,2.5 Z"
         style="color:#000000;overflow:visible;opacity:0.15;marker:none"
         inkscape:connector-curvature="0"
         inkscape:export-filename="/home/jeremypotter/Documents/adblockpluschrome/icons/full/abp-128.png"
         inkscape:export-xdpi="199.59174"
         inkscape:export-ydpi="199.59174" />
      <path
         id="path3875"
         d="m 56,57.002 a 24,6.999 0 1 1 -48,0 24,6.999 0 1 1 48,0 z"
         inkscape:connector-curvature="0"
         style="opacity:0.2;fill:url(#f)"
         inkscape:export-filename="/home/jeremypotter/Documents/adblockpluschrome/icons/full/abp-128.png"
         inkscape:export-xdpi="199.59174"
         inkscape:export-ydpi="199.59174" />
      <path
         id="path3877"
         d="m 48,59.002 a 16,4.999 0 1 1 -32,0 16,4.999 0 1 1 32,0 z"
         inkscape:connector-curvature="0"
         style="opacity:0.4;fill:url(#g)"
         inkscape:export-filename="/home/jeremypotter/Documents/adblockpluschrome/icons/full/abp-128.png"
         inkscape:export-xdpi="199.59174"
         inkscape:export-ydpi="199.59174" />
      <path
         id="path3881"
         overflow="visible"
         style="color:#000000;overflow:visible;fill:#ff5555;marker:none"
         d="m 30.95,2.438 c 7.68,0 14.636,6.966 15.163,15.16 C 46.113,25.545 39.656,32 31.708,32 l -0.758,0.047 c -7.804,0.397 -14.025,6.833 -14.025,14.734 0,7.9 6.22,14.337 14.025,14.733 v 0.048 c 0.253,0.006 0.504,0 0.758,0 16.313,0 29.567,-13.252 29.567,-29.562 0,-16.31 -13.254,-29.562 -29.567,-29.562 -0.254,0 -0.505,-0.006 -0.758,0 z"
         inkscape:connector-curvature="0"
         inkscape:export-filename="/home/jeremypotter/Documents/adblockpluschrome/icons/full/abp-128.png"
         inkscape:export-xdpi="199.59174"
         inkscape:export-ydpi="199.59174" />
      <path
         id="path3871-1"
         overflow="visible"
         d="m 33.927061,104.45514 c -16.27701,0 -29.5000102,13.223 -29.5000102,29.5 0,16.277 13.2230002,29.5 29.5000102,29.5 16.277,0 29.5,-13.223 29.5,-29.5 0,-16.277 -13.223,-29.5 -29.5,-29.5 z"
         style="color:#000000;overflow:visible;fill:url(#linearGradient4834);marker:none;stroke-width:1.00157481;stroke-miterlimit:4;stroke-dasharray:none;fill-opacity:1"
         inkscape:connector-curvature="0"
         inkscape:export-filename="/home/jeremypotter/Documents/adblockpluschrome/icons/abp-16-whitelisted.png"
         inkscape:export-xdpi="26.033892"
         inkscape:export-ydpi="26.033892" />
      <path
         id="path3873-0"
         overflow="visible"
         d="m 33.927061,104.45514 c -0.456,0 -0.909,0.015 -1.36,0.035 a 0.95100001,0.95100001 0 0 0 0.31,1.854 c 7.095,0 13.698,6.558 14.208,14.238 -0.016,7.417 -6.026,13.422 -13.449,13.422 a 0.95000001,0.95000001 0 0 0 -0.059,0.002 l -0.75,0.047 c -8.3,0.421 -14.92501,7.284 -14.92501,15.683 0,4.644 2.029,8.808 5.24601,11.674 a 29.364,29.364 0 0 0 10.779,2.045 c 16.277,0 29.5,-13.223 29.5,-29.5 0,-10.663 -5.676,-20.014 -14.166,-25.197 a 30.306,30.306 0 0 0 -13.91,-4.266 29.907,29.907 0 0 0 -1.424,-0.037 z"
         style="color:#000000;overflow:visible;opacity:0.15;marker:none"
         inkscape:connector-curvature="0"
         inkscape:export-filename="/home/jeremypotter/Documents/adblockpluschrome/icons/abp-16-whitelisted.png"
         inkscape:export-xdpi="26.033892"
         inkscape:export-ydpi="26.033892" />
      <path
         id="path3875-8"
         d="m 57.927061,158.95714 a 24.000005,6.9990016 0 1 1 -48.0000102,0 24.000005,6.9990016 0 1 1 48.0000102,0 z"
         inkscape:connector-curvature="0"
         style="opacity:0.2;fill:url(#f-1)"
         inkscape:export-filename="/home/jeremypotter/Documents/adblockpluschrome/icons/abp-16-whitelisted.png"
         inkscape:export-xdpi="26.033892"
         inkscape:export-ydpi="26.033892" />
      <path
         id="path3877-7"
         d="m 49.927061,160.95714 a 16.000005,4.9990017 0 1 1 -32.00001,0 16.000005,4.9990017 0 1 1 32.00001,0 z"
         inkscape:connector-curvature="0"
         style="opacity:0.4;fill:url(#g-6)"
         inkscape:export-filename="/home/jeremypotter/Documents/adblockpluschrome/icons/abp-16-whitelisted.png"
         inkscape:export-xdpi="26.033892"
         inkscape:export-ydpi="26.033892" />
      <path
         id="path3881-6"
         overflow="visible"
         style="color:#000000;overflow:visible;fill:#e3dedb;marker:none"
         d="m 32.877061,104.39314 c 7.68,0 14.636,6.966 15.163,15.16 0,7.947 -6.457,14.402 -14.405,14.402 l -0.758,0.047 c -7.804,0.397 -14.02501,6.833 -14.02501,14.734 0,7.9 6.22001,14.337 14.02501,14.733 v 0.048 c 0.253,0.006 0.504,0 0.758,0 16.313,0 29.567,-13.252 29.567,-29.562 0,-16.31 -13.254,-29.562 -29.567,-29.562 -0.254,0 -0.505,-0.006 -0.758,0 z"
         inkscape:connector-curvature="0"
         inkscape:export-filename="/home/jeremypotter/Documents/adblockpluschrome/icons/abp-16-whitelisted.png"
         inkscape:export-xdpi="26.033892"
         inkscape:export-ydpi="26.033892" />
    </g>
    <flowRoot
       xml:space="preserve"
       id="flowRoot3926"
       style="fill:black;fill-opacity:1;stroke:none;font-family:sans-serif;font-style:normal;font-weight:normal;font-size:40px;line-height:1.25;letter-spacing:0px;word-spacing:0px"><flowRegion
         id="flowRegion3928"><rect
           id="rect3930"
           width="181.12123"
           height="53.068283"
           x="466.18539"
           y="368.94589" /></flowRegion><flowPara
         id="flowPara3932"></flowPara></flowRoot>  </g>
</svg>
